<svg xmlns="http://www.w3.org/2000/svg" viewBox="0 0 64 64" fill="none">
  <path d="M31.8 8c-6.5 0-11.7 5.2-11.7 11.6 0 .5 0 .9.1 1.4-5.1 1.5-8.8 6.2-8.8 11.8 0 4.6 2.5 8.6 6.2 10.8-.3 1.1-.5 2.2-.5 3.4 0 5 4.1 9.1 9.1 9.1 2.2 0 4.2-.8 5.7-2.1 1.5 1.3 3.5 2.1 5.7 2.1 5 0 9.1-4.1 9.1-9.1 0-1.2-.2-2.3-.6-3.4 3.8-2.2 6.3-6.2 6.3-10.8 0-5.6-3.7-10.3-8.8-11.8.1-.5.1-.9.1-1.4C43.8 13.2 38.4 8 31.8 8Z" stroke="#40522e" stroke-width="3" stroke-linejoin="round"/>
  <path d="M31.9 14v38M23 24c4 1 7 4 8.9 8M41 24c-4 1-7 4-9.1 8M23 40c3.5-.5 6.2-2.3 8.9-5.7M41 40c-3.5-.5-6.2-2.3-9.1-5.7" stroke="#40522e" stroke-width="2.5" stroke-linecap="round"/>
</svg>