<svg xmlns="http://www.w3.org/2000/svg" viewBox="0 0 32 32">
  <path fill="#ffffff" d="M19.11 17.2c-.27-.14-1.58-.78-1.82-.87-.24-.09-.42-.14-.59.14-.17.27-.68.87-.83 1.05-.15.18-.3.2-.57.07-.27-.14-1.13-.41-2.15-1.31-.8-.71-1.35-1.58-1.5-1.85-.15-.27-.02-.42.11-.56.12-.12.27-.3.41-.45.14-.15.18-.27.27-.45.09-.18.05-.34-.02-.48-.07-.14-.59-1.43-.81-1.96-.22-.53-.44-.46-.59-.47h-.5c-.18 0-.48.07-.73.34-.25.27-.95.93-.95 2.27 0 1.34.98 2.64 1.11 2.82.14.18 1.9 2.91 4.6 4.08.64.28 1.14.45 1.54.58.65.21 1.24.18 1.71.11.52-.08 1.58-.65 1.81-1.28.22-.63.22-1.17.15-1.28-.06-.11-.24-.18-.51-.32Z"/>
  <path fill="#ffffff" d="M16 3C8.83 3 3 8.73 3 15.81c0 2.47.73 4.86 2.12 6.91L3.73 28.9l6.36-1.34A13.1 13.1 0 0 0 16 29c7.17 0 13-5.73 13-12.81C29 8.73 23.17 3 16 3Zm0 23.85c-1.9 0-3.76-.51-5.39-1.47l-.39-.23-3.78.8.81-3.68-.25-.38a10.68 10.68 0 0 1-1.67-5.7C5.33 10.34 10.03 5.7 16 5.7s10.67 4.64 10.67 10.49S21.97 26.85 16 26.85Z"/>
</svg>